<mxfile host="app.diagrams.net" agent="Mozilla/5.0 (Windows NT 10.0; Win64; x64) AppleWebKit/537.36 (KHTML, like Gecko) Chrome/131.0.0.0 Safari/537.36" version="25.0.3">
  <diagram name="Page-1" id="jroAxmWr-fk74YcueBdW">
    <mxGraphModel dx="1024" dy="527" grid="1" gridSize="10" guides="1" tooltips="1" connect="1" arrows="1" fold="1" page="1" pageScale="1" pageWidth="2336" pageHeight="1654" background="#E6E6E6" math="0" shadow="0">
      <root>
        <mxCell id="0" />
        <mxCell id="1" parent="0" />
        <mxCell id="RV1n2MIHSZfdGHMfn1xj-2" value="" style="edgeStyle=orthogonalEdgeStyle;rounded=0;orthogonalLoop=1;jettySize=auto;html=1;" edge="1" parent="1" source="X69Ipbv_hbkQS04YyDlX-1" target="RV1n2MIHSZfdGHMfn1xj-1">
          <mxGeometry relative="1" as="geometry" />
        </mxCell>
        <mxCell id="RV1n2MIHSZfdGHMfn1xj-4" value="" style="edgeStyle=orthogonalEdgeStyle;rounded=0;orthogonalLoop=1;jettySize=auto;html=1;" edge="1" parent="1" source="X69Ipbv_hbkQS04YyDlX-1" target="RV1n2MIHSZfdGHMfn1xj-3">
          <mxGeometry relative="1" as="geometry" />
        </mxCell>
        <mxCell id="X69Ipbv_hbkQS04YyDlX-1" value="&lt;font&gt;MAIN CHARACTERS&lt;/font&gt;" style="rounded=0;whiteSpace=wrap;html=1;fillColor=#f8cecc;strokeColor=#b85450;fontFamily=Teko;fontSource=https%3A%2F%2Ffonts.googleapis.com%2Fcss%3Ffamily%3DTeko;fontStyle=0;fontSize=27;" parent="1" vertex="1">
          <mxGeometry x="796" y="60" width="744" height="120" as="geometry" />
        </mxCell>
        <mxCell id="X69Ipbv_hbkQS04YyDlX-2" value="THE ADVENTRUES OF FAIRHAVEN CHARACTER MAP - CREATED BY ARASH JAVANMARD - 22 DEC 2024 - TAOFH ALL RIGHTS RESERVED" style="text;html=1;align=left;verticalAlign=top;whiteSpace=wrap;rounded=0;" parent="1" vertex="1">
          <mxGeometry x="10" y="10" width="820" height="40" as="geometry" />
        </mxCell>
        <mxCell id="RV1n2MIHSZfdGHMfn1xj-1" value="&lt;span&gt;AARON YOUNG&lt;/span&gt;" style="rounded=0;whiteSpace=wrap;html=1;fillColor=#f5f5f5;strokeColor=#666666;fontColor=#333333;fontFamily=Teko;fontSource=https%3A%2F%2Ffonts.googleapis.com%2Fcss%3Ffamily%3DTeko;fontStyle=0;fontSize=27;" vertex="1" parent="1">
          <mxGeometry x="796" y="280" width="244" height="80" as="geometry" />
        </mxCell>
        <mxCell id="RV1n2MIHSZfdGHMfn1xj-5" style="edgeStyle=orthogonalEdgeStyle;rounded=0;orthogonalLoop=1;jettySize=auto;html=1;entryX=1;entryY=0.5;entryDx=0;entryDy=0;shape=link;" edge="1" parent="1" source="RV1n2MIHSZfdGHMfn1xj-3" target="RV1n2MIHSZfdGHMfn1xj-1">
          <mxGeometry relative="1" as="geometry" />
        </mxCell>
        <mxCell id="RV1n2MIHSZfdGHMfn1xj-3" value="&lt;span&gt;REBECCA MILLER&lt;/span&gt;" style="rounded=0;whiteSpace=wrap;html=1;fillColor=#f5f5f5;strokeColor=#666666;fontColor=#333333;fontFamily=Teko;fontSource=https%3A%2F%2Ffonts.googleapis.com%2Fcss%3Ffamily%3DTeko;fontStyle=0;fontSize=27;" vertex="1" parent="1">
          <mxGeometry x="1296" y="280" width="244" height="80" as="geometry" />
        </mxCell>
        <mxCell id="RV1n2MIHSZfdGHMfn1xj-10" value="&lt;pre&gt;KINDERGARTEN BESTFRIENDS&lt;/pre&gt;" style="rounded=0;whiteSpace=wrap;html=1;fontFamily=Garamond;" vertex="1" parent="1">
          <mxGeometry x="1076" y="310" width="184" height="20" as="geometry" />
        </mxCell>
      </root>
    </mxGraphModel>
  </diagram>
</mxfile>
